# xmcd CD database file
#
# Track frame offsets:
#	150
#	19056
#	54654
#	91646
#	116420
#	151021
#	174059
#	196129
#	217239
#
# Disc length: 3364 seconds
#
# Revision: 0
# Processed by: cddbd v1.5.2PL0 Copyright (c) Steve Scherf et al.
# Submitted via: CDex 1.70beta2
#
DISCID=650d2209
DTITLE=Frank Kimbrough - Solstice
DYEAR=2016
DGENRE=Jazz
TTITLE0=Seven
TTITLE1=Here Come The Honey Man
TTITLE2=Solstice
TTITLE3=The Sunflower
TTITLE4=Albert's Love Theme
TTITLE5=Question's The Answer
TTITLE6=From California With Love
TTITLE7=El Cordobes
TTITLE8=Walking By Flashlight
EXTD=YEAR: 2016
EXTT0=
EXTT1=
EXTT2=
EXTT3=
EXTT4=
EXTT5=
EXTT6=
EXTT7=
EXTT8=
PLAYORDER=
